Coordinates
version=1
nRows=4
nColumns=107
inDegrees=yes

Units are S.I. units (second, meters, Newtons, ...)
If the header above contains a line with 'inDegrees', this indicates whether rotational values are in degrees (yes) or radians (no).

endheader
time	sternoclavicular_r2	sternoclavicular_r3	unrotscap_r3	unrotscap_r2	acromioclavicular_r2	acromioclavicular_r3	acromioclavicular_r1	unrothum_r1	unrothum_r3	unrothum_r2	elv_angle	shoulder_elv	shoulder1_r2	shoulder_rot	elbow_flexion	pro_sup	deviation	flexion	proximal_distal_r1	proximal_distal_r3	cmc_flexion	cmc_abduction	mp_flexion	ip_flexion	mcp2_flexion	mcp2_abduction	pm2_flexion	md2_flexion	mcp3_flexion	mcp3_abduction	pm3_flexion	md3_flexion	mcp4_flexion	mcp4_abduction	pm4_flexion	md4_flexion	mcp5_flexion	mcp5_abduction	pm5_flexion	md5_flexion	bicpt_tx	bicpt_ty	bicpt_tz	bicpt2_tx	bicpt2_ty	bicpt2_tz	ptpt_tx	ptpt_ty	ptpt_tz	FCUpt_tx	FCUpt_ty	FCUpt_tz	EDCpt_tx	EDCpt_ty	EDCpt_tz	APLpt_tx	APLpt_ty	APLpt_tz	FPLpt_tx	FPLpt_ty	FPLpt_tz	FPLpt2_tx	FPLpt2_ty	FPLpt2_tz	PEC1pt2_tx	PEC1pt2_ty	PEC1pt2_tz	PEC1pt3_tx	PEC1pt3_ty	PEC1pt3_tz	PEC2pt2_tx	PEC2pt2_ty	PEC2pt2_tz	PEC2pt3_tx	PEC2pt3_ty	PEC2pt3_tz	PEC3pt2_tx	PEC3pt2_ty	PEC3pt2_tz	PEC3pt3_tx	PEC3pt3_ty	PEC3pt3_tz	DELT2pt2a_tx	DELT2pt2a_ty	DELT2pt2a_tz	DELT2pt2_tx	DELT2pt2_ty	DELT2pt2_tz	LAT1pt2_tx	LAT1pt2_ty	LAT1pt2_tz	LAT1pt3_tx	LAT1pt3_ty	LAT1pt3_tz	LAT2pt2_tx	LAT2pt2_ty	LAT2pt2_tz	LAT2pt3_tx	LAT2pt3_ty	LAT2pt3_tz	LAT3pt2_tx	LAT3pt2_ty	LAT3pt2_tz	LAT3pt3_tx	LAT3pt3_ty	LAT3pt3_tz
      0.00000000	     -0.32643001	      0.13826034	     -0.13826034	      0.32643001	     -0.06609544	      0.53416007	      0.24010127	     -0.24010127	     -0.53416007	      0.06609544	     98.46870117	     77.28520565	     -1.71860305	    -17.81625625	     27.92964787	     17.52123176	      0.05397474	     -0.84166090	      0.07086719	     -0.42083045	     -4.74891189	      3.24607662	    -30.62912772	    -39.88259878	      2.59346221	     12.27286694	     12.97852306	    -26.13765518	     51.55402996	      6.42383042	     84.50715455	     65.57530592	     46.21609534	     -3.79412960	     88.50830163	     41.59182444	     15.91738903	    -13.02633279	    -22.20119155	      4.87137875	      0.00082383	     -0.03080116	     -0.00481562	      0.01595442	     -0.01778723	     -0.00951544	      0.00625538	     -0.06573712	     -0.00146143	      0.00559508	     -0.18389094	     -0.00003658	     -0.00210254	      0.00054381	      0.00017087	      0.00026790	      0.00010716	      0.00053579	      0.00034291	      0.00102872	      0.00057865	     -0.00033303	      0.00013125	      0.00015750	      0.00253324	      0.00888781	      0.00618282	     -0.00828670	      0.02000830	     -0.01897783	      0.00253324	      0.00888781	      0.00618282	      0.00055817	      0.01854847	     -0.00974653	      0.00399004	      0.00494240	      0.01606964	      0.00000000	      0.00798974	      0.00000000	     -0.00725623	     -0.03353322	     -0.00658906	      0.01248423	     -0.00036583	     -0.00257841	     -0.00090166	      0.01511356	     -0.00618282	      0.00249030	      0.02181162	     -0.01803323	     -0.00605401	      0.01309556	     -0.00553878	     -0.01262326	      0.02765095	     -0.03095704	     -0.02370082	      0.01464127	     -0.00742797	     -0.01571467	      0.03194458	     -0.03868557
      0.03333333	     -0.32617819	      0.13815368	     -0.13815368	      0.32617819	     -0.06604445	      0.53374799	      0.23991605	     -0.23991605	     -0.53374799	      0.06604445	     98.46236501	     77.22558487	     -1.71849246	    -17.80747679	     27.91136819	     17.51969298	      0.05392874	     -0.84158518	      0.07080842	     -0.42079259	     -4.74654700	      3.24563710	    -30.62803352	    -39.88220906	      2.59451154	     12.27323640	     12.97810069	    -26.13762029	     51.55710957	      6.42344547	     84.50686819	     65.57482517	     46.21517134	     -3.79481766	     88.50749869	     41.59170150	     15.92002670	    -13.02754659	    -22.20026264	      4.87141146	      0.00082322	     -0.03079907	     -0.00481529	      0.01595434	     -0.01778226	     -0.00951555	      0.00625549	     -0.06573705	     -0.00146131	      0.00559494	     -0.18389096	     -0.00003654	     -0.00210236	      0.00054376	      0.00017086	      0.00026792	      0.00010717	      0.00053584	      0.00034294	      0.00102882	      0.00057871	     -0.00033275	      0.00013118	      0.00015742	      0.00253129	      0.00888095	      0.00617805	     -0.00828031	      0.01999286	     -0.01896319	      0.00253129	      0.00888095	      0.00617805	      0.00055774	      0.01853416	     -0.00973901	      0.00398781	      0.00493858	      0.01606427	      0.00000000	      0.00797733	      0.00000000	     -0.00725063	     -0.03350735	     -0.00657876	      0.01247890	     -0.00036557	     -0.00257568	     -0.00090097	      0.01510190	     -0.00617805	      0.00248838	      0.02179479	     -0.01801932	     -0.00604934	      0.01308546	     -0.00553450	     -0.01261352	      0.02762962	     -0.03093316	     -0.02368253	      0.01462997	     -0.00742224	     -0.01570255	      0.03191994	     -0.03865573
      0.06666667	     -0.32634607	      0.13822479	     -0.13822479	      0.32634607	     -0.06607844	      0.53402272	      0.24003954	     -0.24003954	     -0.53402272	      0.06607844	     98.49917571	     77.26533398	     -1.71913493	    -17.90380659	     27.84586793	     18.10078128	      0.06392490	     -0.79750518	      0.08341090	     -0.39875259	     -3.50543748	      2.22244308	    -30.95459628	    -38.95200981	      1.79058865	     12.52317597	     12.01087202	    -26.38331372	     52.41142336	      6.58554138	     84.35307660	     62.64290926	     45.53042073	     -3.79566234	     88.97396958	     40.99702573	     15.80392718	    -13.18139444	    -21.61876872	      4.82968082	      0.00082105	     -0.03079156	     -0.00481408	      0.01598492	     -0.01776447	     -0.00947160	      0.00621256	     -0.06576481	     -0.00150812	      0.00564946	     -0.18388253	     -0.00005038	     -0.00217209	      0.00056342	      0.00017368	      0.00028333	      0.00011333	      0.00056666	      0.00036266	      0.00108799	      0.00061199	     -0.00020327	      0.00009446	      0.00011335	      0.00253259	      0.00888552	      0.00618123	     -0.00828457	      0.02000315	     -0.01897295	      0.00253259	      0.00888552	      0.00618123	      0.00055803	      0.01854370	     -0.00974403	      0.00398930	      0.00494113	      0.01606785	      0.00000000	      0.00798560	      0.00000000	     -0.00725436	     -0.03352460	     -0.00658562	      0.01253728	     -0.00036845	     -0.00260574	     -0.00090143	      0.01510968	     -0.00618123	      0.00248966	      0.02180601	     -0.01802859	     -0.00605246	      0.01309219	     -0.00553735	     -0.01262002	      0.02764384	     -0.03094908	     -0.02369472	      0.01463750	     -0.00742606	     -0.01571063	      0.03193637	     -0.03867562
      0.10000000	     -0.32618463	      0.13815641	     -0.13815641	      0.32618463	     -0.06604575	      0.53375854	      0.23992079	     -0.23992079	     -0.53375854	      0.06604575	     98.49864069	     77.22711100	     -1.71912559	    -17.89726293	     27.83696644	     18.09976384	      0.06388772	     -0.79744978	      0.08336378	     -0.39872489	     -3.50404770	      2.22219869	    -30.95394598	    -38.95174969	      1.79174613	     12.52328467	     12.01072954	    -26.38314105	     52.41321403	      6.58538554	     84.35298314	     62.64264001	     45.52991790	     -3.79601026	     88.97345393	     40.99687268	     15.80652296	    -13.18216812	    -21.61790035	      4.82974587	      0.00082076	     -0.03079054	     -0.00481391	      0.01598487	     -0.01776205	     -0.00947168	      0.00621263	     -0.06576476	     -0.00150803	      0.00564936	     -0.18388255	     -0.00005036	     -0.00217197	      0.00056338	      0.00017367	      0.00028335	      0.00011334	      0.00056669	      0.00036268	      0.00108805	      0.00061203	     -0.00020320	      0.00009442	      0.00011331	      0.00253134	      0.00888113	      0.00617817	     -0.00828047	      0.01999326	     -0.01896356	      0.00253134	      0.00888113	      0.00617817	      0.00055775	      0.01853452	     -0.00973921	      0.00398787	      0.00493868	      0.01606441	      0.00000000	      0.00797765	      0.00000000	     -0.00725077	     -0.03350801	     -0.00657902	      0.01253329	     -0.00036825	     -0.00260373	     -0.00090098	      0.01510220	     -0.00617817	      0.00248843	      0.02179523	     -0.01801967	     -0.00604946	      0.01308572	     -0.00553461	     -0.01261377	      0.02763017	     -0.03093377	     -0.02368300	      0.01463026	     -0.00742239	     -0.01570286	      0.03192057	     -0.03865649
